<svg xmlns="http://www.w3.org/2000/svg" viewBox="0 0 1160 462" role="img" aria-label="DMR-762">
<style>
  .metal { fill: #9aa2ae; }
  .polymer { fill: #6d737e; }
  .rubber { fill: #464c56; }
  .accent { fill: #c8531f; }
  .glass { fill: #7fa8bd; opacity: 0.7; }
  .cell { fill: #cfcabf; }
  .cut { fill: #1a1d23; }
</style>
<rect x="20" y="165" width="70" height="30" class="metal"/>
<rect x="26" y="165" width="9.7" height="11.3" class="cut"/>
<rect x="45.3" y="165" width="9.7" height="11.3" class="cut"/>
<rect x="64.7" y="165" width="9.7" height="11.3" class="cut"/>
<rect x="80" y="170" width="448" height="20" class="metal"/>
<rect x="78" y="148" width="404" height="68" class="polymer"/>
<rect x="102" y="205" width="42" height="7" class="cut"/>
<rect x="193" y="205" width="42" height="7" class="cut"/>
<rect x="284" y="205" width="42" height="7" class="cut"/>
<rect x="375" y="205" width="42" height="7" class="cut"/>
<rect x="76" y="138" width="660" height="10" class="accent"/>
<rect x="80" y="138" width="4" height="4" class="cut"/>
<rect x="90" y="138" width="4" height="4" class="cut"/>
<rect x="100" y="138" width="4" height="4" class="cut"/>
<rect x="110" y="138" width="4" height="4" class="cut"/>
<rect x="120" y="138" width="4" height="4" class="cut"/>
<rect x="130" y="138" width="4" height="4" class="cut"/>
<rect x="140" y="138" width="4" height="4" class="cut"/>
<rect x="150" y="138" width="4" height="4" class="cut"/>
<rect x="160" y="138" width="4" height="4" class="cut"/>
<rect x="170" y="138" width="4" height="4" class="cut"/>
<rect x="180" y="138" width="4" height="4" class="cut"/>
<rect x="190" y="138" width="4" height="4" class="cut"/>
<rect x="200" y="138" width="4" height="4" class="cut"/>
<rect x="210" y="138" width="4" height="4" class="cut"/>
<rect x="220" y="138" width="4" height="4" class="cut"/>
<rect x="230" y="138" width="4" height="4" class="cut"/>
<rect x="240" y="138" width="4" height="4" class="cut"/>
<rect x="250" y="138" width="4" height="4" class="cut"/>
<rect x="260" y="138" width="4" height="4" class="cut"/>
<rect x="270" y="138" width="4" height="4" class="cut"/>
<rect x="280" y="138" width="4" height="4" class="cut"/>
<rect x="290" y="138" width="4" height="4" class="cut"/>
<rect x="300" y="138" width="4" height="4" class="cut"/>
<rect x="310" y="138" width="4" height="4" class="cut"/>
<rect x="320" y="138" width="4" height="4" class="cut"/>
<rect x="330" y="138" width="4" height="4" class="cut"/>
<rect x="340" y="138" width="4" height="4" class="cut"/>
<rect x="350" y="138" width="4" height="4" class="cut"/>
<rect x="360" y="138" width="4" height="4" class="cut"/>
<rect x="370" y="138" width="4" height="4" class="cut"/>
<rect x="380" y="138" width="4" height="4" class="cut"/>
<rect x="390" y="138" width="4" height="4" class="cut"/>
<rect x="400" y="138" width="4" height="4" class="cut"/>
<rect x="410" y="138" width="4" height="4" class="cut"/>
<rect x="420" y="138" width="4" height="4" class="cut"/>
<rect x="430" y="138" width="4" height="4" class="cut"/>
<rect x="440" y="138" width="4" height="4" class="cut"/>
<rect x="450" y="138" width="4" height="4" class="cut"/>
<rect x="460" y="138" width="4" height="4" class="cut"/>
<rect x="470" y="138" width="4" height="4" class="cut"/>
<rect x="480" y="138" width="4" height="4" class="cut"/>
<rect x="490" y="138" width="4" height="4" class="cut"/>
<rect x="500" y="138" width="4" height="4" class="cut"/>
<rect x="510" y="138" width="4" height="4" class="cut"/>
<rect x="520" y="138" width="4" height="4" class="cut"/>
<rect x="530" y="138" width="4" height="4" class="cut"/>
<rect x="540" y="138" width="4" height="4" class="cut"/>
<rect x="550" y="138" width="4" height="4" class="cut"/>
<rect x="560" y="138" width="4" height="4" class="cut"/>
<rect x="570" y="138" width="4" height="4" class="cut"/>
<rect x="580" y="138" width="4" height="4" class="cut"/>
<rect x="590" y="138" width="4" height="4" class="cut"/>
<rect x="600" y="138" width="4" height="4" class="cut"/>
<rect x="610" y="138" width="4" height="4" class="cut"/>
<rect x="620" y="138" width="4" height="4" class="cut"/>
<rect x="630" y="138" width="4" height="4" class="cut"/>
<rect x="640" y="138" width="4" height="4" class="cut"/>
<rect x="650" y="138" width="4" height="4" class="cut"/>
<rect x="660" y="138" width="4" height="4" class="cut"/>
<rect x="670" y="138" width="4" height="4" class="cut"/>
<rect x="680" y="138" width="4" height="4" class="cut"/>
<rect x="690" y="138" width="4" height="4" class="cut"/>
<rect x="700" y="138" width="4" height="4" class="cut"/>
<rect x="710" y="138" width="4" height="4" class="cut"/>
<rect x="720" y="138" width="4" height="4" class="cut"/>
<rect x="482" y="148" width="254" height="58" class="metal"/>
<rect x="736" y="150" width="38" height="24" class="metal"/>
<rect x="518" y="206" width="194" height="54" class="metal"/>
<polygon points="526,260 612,260 596,442 510,442" class="polymer"/>
<polygon points="634,260 696,260 696,294 684,306 646,306 634,294" class="metal"/>
<polygon points="650,260 728,260 760,396 676,396" class="polymer"/>
<rect x="760" y="164" width="354" height="30" class="metal"/>
<polygon points="800,126 1110,126 1110,226 830,226" class="polymer"/>
<rect x="1110" y="122" width="30" height="110" class="rubber"/>
<rect x="502" y="79" width="28" height="59" class="accent"/>
<rect x="690" y="79" width="28" height="59" class="accent"/>
<rect x="472" y="34.2" width="308" height="54.3" class="metal"/>
<rect x="472" y="24.7" width="60" height="73.2" class="metal"/>
<rect x="718" y="20" width="62" height="82.6" class="metal"/>
<rect x="770" y="24.7" width="10" height="73.2" class="glass"/>
<rect x="472" y="31.8" width="8" height="59" class="glass"/>
<polygon points="224,216 250,216 264,426 254,426" class="metal"/>
<polygon points="224,216 250,216 210,426 200,426" class="metal"/>
<rect x="120" y="225" width="110" height="22" class="metal"/>
<rect x="104" y="222" width="16" height="28" class="accent"/>
<rect x="196" y="216" width="22" height="9" class="accent"/>
<circle cx="720" cy="148" r="9" class="accent"/>
</svg>
