<svg xmlns="http://www.w3.org/2000/svg" viewBox="0 0 1040 306" role="img" aria-label="SG-12P">
<style>
  .metal { fill: #9aa2ae; }
  .polymer { fill: #6d737e; }
  .rubber { fill: #464c56; }
  .accent { fill: #c8531f; }
  .glass { fill: #7fa8bd; opacity: 0.7; }
  .cell { fill: #cfcabf; }
  .cut { fill: #1a1d23; }
</style>
<rect x="20" y="92" width="52" height="44" class="accent"/>
<rect x="66" y="103" width="424" height="22" class="metal"/>
<rect x="80" y="132" width="370" height="22" class="metal"/>
<rect x="170" y="126" width="154" height="40" class="polymer"/>
<rect x="184" y="130" width="9" height="32" class="cut"/>
<rect x="204" y="130" width="9" height="32" class="cut"/>
<rect x="224" y="130" width="9" height="32" class="cut"/>
<rect x="244" y="130" width="9" height="32" class="cut"/>
<rect x="264" y="130" width="9" height="32" class="cut"/>
<rect x="284" y="130" width="9" height="32" class="cut"/>
<rect x="304" y="130" width="9" height="32" class="cut"/>
<rect x="490" y="84" width="214" height="58" class="metal"/>
<rect x="498" y="74" width="198" height="10" class="accent"/>
<rect x="502" y="74" width="4" height="4" class="cut"/>
<rect x="512" y="74" width="4" height="4" class="cut"/>
<rect x="522" y="74" width="4" height="4" class="cut"/>
<rect x="532" y="74" width="4" height="4" class="cut"/>
<rect x="542" y="74" width="4" height="4" class="cut"/>
<rect x="552" y="74" width="4" height="4" class="cut"/>
<rect x="562" y="74" width="4" height="4" class="cut"/>
<rect x="572" y="74" width="4" height="4" class="cut"/>
<rect x="582" y="74" width="4" height="4" class="cut"/>
<rect x="592" y="74" width="4" height="4" class="cut"/>
<rect x="602" y="74" width="4" height="4" class="cut"/>
<rect x="612" y="74" width="4" height="4" class="cut"/>
<rect x="622" y="74" width="4" height="4" class="cut"/>
<rect x="632" y="74" width="4" height="4" class="cut"/>
<rect x="642" y="74" width="4" height="4" class="cut"/>
<rect x="652" y="74" width="4" height="4" class="cut"/>
<rect x="662" y="74" width="4" height="4" class="cut"/>
<rect x="672" y="74" width="4" height="4" class="cut"/>
<rect x="682" y="74" width="4" height="4" class="cut"/>
<rect x="534" y="49.7" width="30" height="24.3" class="accent"/>
<rect x="616" y="49.7" width="30" height="24.3" class="accent"/>
<rect x="520" y="20" width="140" height="32.4" class="metal"/>
<rect x="524" y="26" width="12" height="21" class="glass"/>
<rect x="644" y="26" width="12" height="21" class="glass"/>
<rect x="488" y="144" width="32" height="36" class="metal"/>
<polygon points="586,142 646,142 646,176 634,188 598,188 586,176" class="metal"/>
<polygon points="618,142 696,142 720,282 650,286" class="polymer"/>
<rect x="704" y="98" width="290" height="30" class="metal"/>
<polygon points="744,60 990,60 990,158 774,158" class="polymer"/>
<rect x="990" y="56" width="30" height="108" class="rubber"/>
<rect x="124" y="63" width="96" height="22" class="metal"/>
<rect x="108" y="60" width="16" height="28" class="accent"/>
<rect x="186" y="54" width="22" height="9" class="accent"/>
<circle cx="986" cy="148" r="9" class="accent"/>
</svg>
