<svg xmlns="http://www.w3.org/2000/svg" width="951.2" height="914.2" viewBox="0 0 951.2 914.2">
<style>
  .bg { fill: #f7f5f1; }
  .grid { stroke: #dcd8d0; stroke-width: 1; }
  .tick { fill: #8d8880; font: 11px ui-monospace, monospace; text-anchor: middle; }
  /* Every label is drawn with the page colour behind its own strokes, so a
     door id that lands on a wall or a room name is still readable. */
  text { paint-order: stroke; stroke: #f7f5f1; stroke-width: 3px; stroke-linejoin: round; }
  .room { fill: #ffffff; stroke: #e4e0d8; stroke-width: 1; }
  .shaft { fill: #eceef3; stroke: #c9cdd6; stroke-width: 1; }
  .outside { fill: #f0ece4; stroke: #ddd8ce; stroke-dasharray: 4 3; }
  .wall { fill: #2f3136; }
  .wall.drywall { fill: #7c766c; }
  .wall.glass { fill: #7fa8bd; }
  .room-name { font: 600 13px system-ui, sans-serif; fill: #22242a; text-anchor: middle; }
  .room-size { font: 11px ui-monospace, monospace; fill: #8d8880; text-anchor: middle; }
  .shaft-label { font: 600 12px system-ui, sans-serif; fill: #4a5568; text-anchor: middle; }
  .door-shut { stroke: #c8531f; stroke-width: 3; fill: none; }
  .door-open { stroke: #c8531f; stroke-width: 3; fill: none; opacity: 0.35; }
  .door-arc { stroke: #c8531f; stroke-width: 1; fill: none; stroke-dasharray: 3 3; opacity: 0.7; }
  .hinge { fill: #c8531f; }
  .door-id { font: 9px ui-monospace, monospace; fill: #a8511f; text-anchor: middle; }
  .tread { fill: #ded5c6; stroke: #b9ac97; stroke-width: 0.8; }
  .up-arrow { stroke: #4a5568; stroke-width: 1.5; fill: none; }
  .up-label { font: 10px system-ui, sans-serif; fill: #4a5568; text-anchor: middle; }
  .spawn { stroke: #ffffff; stroke-width: 1.5; }
  .spawn.attackers { fill: #2e6fbf; }
  .spawn.defenders { fill: #c2452f; }
  .title { font: 600 22px system-ui, sans-serif; fill: #22242a; }
  .subtitle { font: 13px system-ui, sans-serif; fill: #6b6660; }
  .legend { font: 12px system-ui, sans-serif; fill: #3d3f45; }
</style>
<defs>
  <marker id="arrow" viewBox="0 0 10 10" refX="9" refY="5" markerWidth="6" markerHeight="6" orient="auto-start-reverse">
    <path d="M 0 0 L 10 5 L 0 10 z" fill="#4a5568"/>
  </marker>
</defs>
<rect class="bg" width="951.2" height="914.2"/>
<text x="64" y="34" class="title">Пентхаус — второй этаж (y = 3.3)</text>
<text x="64" y="54" class="subtitle">Связь между этажами — только две лестницы по краям. Мебели нет.</text>
<text x="64" y="872.2" class="legend">Сетка 2 м. Оси в метрах: +X вправо, +Z вниз. Под названием комнаты — размер и её id в коде.</text>
<text x="64" y="890.2" class="legend">Оранжевым — двери: сплошная створка закрыта, пунктир — куда открывается, точка — петля. Синие точки — спавн штурма, красные — обороны.</text>
<text x="64" y="908.2" class="legend">Стены: тёмные — бетон (не простреливается), серые — гипсокартон (простреливается), голубые — стекло (бьётся с двух попаданий).</text>
<line x1="79.6" y1="92" x2="79.6" y2="838.2" class="grid"/>
<text x="79.6" y="84" class="tick">-16</text>
<line x1="131.6" y1="92" x2="131.6" y2="838.2" class="grid"/>
<line x1="183.6" y1="92" x2="183.6" y2="838.2" class="grid"/>
<text x="183.6" y="84" class="tick">-12</text>
<line x1="235.6" y1="92" x2="235.6" y2="838.2" class="grid"/>
<line x1="287.6" y1="92" x2="287.6" y2="838.2" class="grid"/>
<text x="287.6" y="84" class="tick">-8</text>
<line x1="339.6" y1="92" x2="339.6" y2="838.2" class="grid"/>
<line x1="391.6" y1="92" x2="391.6" y2="838.2" class="grid"/>
<text x="391.6" y="84" class="tick">-4</text>
<line x1="443.6" y1="92" x2="443.6" y2="838.2" class="grid"/>
<line x1="495.6" y1="92" x2="495.6" y2="838.2" class="grid"/>
<text x="495.6" y="84" class="tick">0</text>
<line x1="547.6" y1="92" x2="547.6" y2="838.2" class="grid"/>
<line x1="599.6" y1="92" x2="599.6" y2="838.2" class="grid"/>
<text x="599.6" y="84" class="tick">4</text>
<line x1="651.6" y1="92" x2="651.6" y2="838.2" class="grid"/>
<line x1="703.6" y1="92" x2="703.6" y2="838.2" class="grid"/>
<text x="703.6" y="84" class="tick">8</text>
<line x1="755.6" y1="92" x2="755.6" y2="838.2" class="grid"/>
<line x1="807.6" y1="92" x2="807.6" y2="838.2" class="grid"/>
<text x="807.6" y="84" class="tick">12</text>
<line x1="859.6" y1="92" x2="859.6" y2="838.2" class="grid"/>
<line x1="911.6" y1="92" x2="911.6" y2="838.2" class="grid"/>
<text x="911.6" y="84" class="tick">16</text>
<line x1="64" y1="107.6" x2="927.2" y2="107.6" class="grid"/>
<line x1="64" y1="159.6" x2="927.2" y2="159.6" class="grid"/>
<text x="54" y="163.6" class="tick" text-anchor="end">-16</text>
<line x1="64" y1="211.6" x2="927.2" y2="211.6" class="grid"/>
<line x1="64" y1="263.6" x2="927.2" y2="263.6" class="grid"/>
<text x="54" y="267.6" class="tick" text-anchor="end">-12</text>
<line x1="64" y1="315.6" x2="927.2" y2="315.6" class="grid"/>
<line x1="64" y1="367.6" x2="927.2" y2="367.6" class="grid"/>
<text x="54" y="371.6" class="tick" text-anchor="end">-8</text>
<line x1="64" y1="419.6" x2="927.2" y2="419.6" class="grid"/>
<line x1="64" y1="471.6" x2="927.2" y2="471.6" class="grid"/>
<text x="54" y="475.6" class="tick" text-anchor="end">-4</text>
<line x1="64" y1="523.6" x2="927.2" y2="523.6" class="grid"/>
<line x1="64" y1="575.6" x2="927.2" y2="575.6" class="grid"/>
<text x="54" y="579.6" class="tick" text-anchor="end">0</text>
<line x1="64" y1="627.6" x2="927.2" y2="627.6" class="grid"/>
<line x1="64" y1="679.6" x2="927.2" y2="679.6" class="grid"/>
<text x="54" y="683.6" class="tick" text-anchor="end">4</text>
<line x1="64" y1="731.6" x2="927.2" y2="731.6" class="grid"/>
<line x1="64" y1="783.6" x2="927.2" y2="783.6" class="grid"/>
<text x="54" y="787.6" class="tick" text-anchor="end">8</text>
<line x1="64" y1="835.6" x2="927.2" y2="835.6" class="grid"/>
<rect x="79.6" y="111.5" width="260" height="139.1" class="room"/>
<rect x="339.6" y="111.5" width="130" height="139.1" class="room"/>
<rect x="469.6" y="111.5" width="156" height="139.1" class="room"/>
<rect x="625.6" y="111.5" width="104" height="139.1" class="room"/>
<rect x="729.6" y="111.5" width="182" height="139.1" class="room"/>
<rect x="79.6" y="250.6" width="260" height="132.6" class="room"/>
<rect x="339.6" y="250.6" width="130" height="132.6" class="room"/>
<rect x="469.6" y="250.6" width="156" height="132.6" class="room"/>
<rect x="625.6" y="250.6" width="286" height="132.6" class="room"/>
<rect x="142" y="383.2" width="707.2" height="72.8" class="room"/>
<rect x="79.6" y="456" width="364" height="271.7" class="room"/>
<rect x="443.6" y="456" width="208" height="145.6" class="room"/>
<rect x="651.6" y="456" width="260" height="145.6" class="room"/>
<rect x="443.6" y="601.6" width="208" height="126.1" class="room"/>
<rect x="651.6" y="601.6" width="260" height="126.1" class="room"/>
<rect x="79.6" y="250.6" width="62.4" height="205.4" class="shaft"/>
<rect x="849.2" y="383.2" width="62.4" height="218.4" class="shaft"/>
<rect x="83.5" y="409.2" width="54.6" height="7.8" class="tread"/>
<rect x="83.5" y="401.4" width="54.6" height="7.8" class="tread"/>
<rect x="83.5" y="393.6" width="54.6" height="7.8" class="tread"/>
<rect x="83.5" y="385.8" width="54.6" height="7.8" class="tread"/>
<rect x="83.5" y="378" width="54.6" height="7.8" class="tread"/>
<rect x="83.5" y="370.2" width="54.6" height="7.8" class="tread"/>
<rect x="83.5" y="362.4" width="54.6" height="7.8" class="tread"/>
<rect x="83.5" y="354.6" width="54.6" height="7.8" class="tread"/>
<rect x="83.5" y="346.8" width="54.6" height="7.8" class="tread"/>
<rect x="83.5" y="339" width="54.6" height="7.8" class="tread"/>
<rect x="83.5" y="331.2" width="54.6" height="7.8" class="tread"/>
<rect x="83.5" y="323.4" width="54.6" height="7.8" class="tread"/>
<rect x="83.5" y="315.6" width="54.6" height="7.8" class="tread"/>
<rect x="83.5" y="307.8" width="54.6" height="7.8" class="tread"/>
<rect x="83.5" y="300" width="54.6" height="7.8" class="tread"/>
<rect x="83.5" y="292.2" width="54.6" height="7.8" class="tread"/>
<path d="M 110.8 413.1 L 110.8 296.1" class="up-arrow" marker-end="url(#arrow)"/>
<text x="110.8" y="348.6" class="up-label" transform="rotate(-90 110.8 348.6)">вверх</text>
<rect x="853.1" y="419.6" width="54.6" height="7.8" class="tread"/>
<rect x="853.1" y="427.4" width="54.6" height="7.8" class="tread"/>
<rect x="853.1" y="435.2" width="54.6" height="7.8" class="tread"/>
<rect x="853.1" y="443" width="54.6" height="7.8" class="tread"/>
<rect x="853.1" y="450.8" width="54.6" height="7.8" class="tread"/>
<rect x="853.1" y="458.6" width="54.6" height="7.8" class="tread"/>
<rect x="853.1" y="466.4" width="54.6" height="7.8" class="tread"/>
<rect x="853.1" y="474.2" width="54.6" height="7.8" class="tread"/>
<rect x="853.1" y="482" width="54.6" height="7.8" class="tread"/>
<rect x="853.1" y="489.8" width="54.6" height="7.8" class="tread"/>
<rect x="853.1" y="497.6" width="54.6" height="7.8" class="tread"/>
<rect x="853.1" y="505.4" width="54.6" height="7.8" class="tread"/>
<rect x="853.1" y="513.2" width="54.6" height="7.8" class="tread"/>
<rect x="853.1" y="521" width="54.6" height="7.8" class="tread"/>
<rect x="853.1" y="528.8" width="54.6" height="7.8" class="tread"/>
<rect x="853.1" y="536.6" width="54.6" height="7.8" class="tread"/>
<path d="M 880.4 423.5 L 880.4 540.5" class="up-arrow" marker-end="url(#arrow)"/>
<text x="880.4" y="476" class="up-label" transform="rotate(-90 880.4 476)">вверх</text>
<rect x="83.5" y="727.7" width="360.1" height="7.8" class="wall concrete"/>
<rect x="443.6" y="727.7" width="468" height="7.8" class="wall concrete"/>
<rect x="75.7" y="456" width="7.8" height="275.6" class="wall concrete"/>
<rect x="75.7" y="107.6" width="7.8" height="348.4" class="wall concrete"/>
<rect x="79.6" y="103.7" width="832" height="7.8" class="wall concrete"/>
<rect x="907.7" y="107.6" width="7.8" height="624" class="wall concrete"/>
<rect x="138.1" y="250.6" width="7.8" height="18.2" class="wall concrete"/>

<rect x="138.1" y="294.8" width="7.8" height="161.2" class="wall concrete"/>
<rect x="79.6" y="246.7" width="62.4" height="7.8" class="wall concrete"/>
<rect x="79.6" y="452.1" width="62.4" height="7.8" class="wall concrete"/>
<rect x="845.3" y="383.2" width="7.8" height="161.2" class="wall concrete"/>

<rect x="845.3" y="570.4" width="7.8" height="31.2" class="wall concrete"/>
<rect x="849.2" y="379.3" width="62.4" height="7.8" class="wall concrete"/>
<rect x="849.2" y="597.7" width="62.4" height="7.8" class="wall concrete"/>
<rect x="142" y="381.6" width="80.6" height="3.1" class="wall drywall"/>

<rect x="248.6" y="381.6" width="143" height="3.1" class="wall drywall"/>

<rect x="417.6" y="381.6" width="117" height="3.1" class="wall drywall"/>

<rect x="560.6" y="381.6" width="156" height="3.1" class="wall drywall"/>

<rect x="742.6" y="381.6" width="106.6" height="3.1" class="wall drywall"/>
<rect x="142" y="454.4" width="132.6" height="3.1" class="wall drywall"/>

<rect x="300.6" y="454.4" width="234" height="3.1" class="wall drywall"/>

<rect x="560.6" y="454.4" width="182" height="3.1" class="wall drywall"/>

<rect x="768.6" y="454.4" width="80.6" height="3.1" class="wall drywall"/>
<rect x="338" y="111.5" width="3.1" height="61.1" class="wall drywall"/>

<rect x="338" y="198.6" width="3.1" height="104" class="wall drywall"/>

<rect x="338" y="328.6" width="3.1" height="54.6" class="wall drywall"/>
<rect x="468" y="111.5" width="3.1" height="55.9" class="wall drywall"/>

<rect x="468" y="203.8" width="3.1" height="179.4" class="wall drywall"/>
<rect x="624" y="111.5" width="3.1" height="61.1" class="wall drywall"/>

<rect x="624" y="198.6" width="3.1" height="184.6" class="wall drywall"/>
<rect x="728" y="111.5" width="3.1" height="61.1" class="wall drywall"/>

<rect x="728" y="198.6" width="3.1" height="52" class="wall drywall"/>
<rect x="142" y="249" width="80.6" height="3.1" class="wall drywall"/>

<rect x="248.6" y="249" width="286" height="3.1" class="wall drywall"/>

<rect x="560.6" y="249" width="208" height="3.1" class="wall drywall"/>

<rect x="794.6" y="249" width="117" height="3.1" class="wall drywall"/>
<rect x="442" y="457.6" width="3.1" height="53" class="wall drywall"/>

<rect x="442" y="536.6" width="3.1" height="191.1" class="wall drywall"/>
<rect x="650" y="456" width="3.1" height="54.6" class="wall drywall"/>

<rect x="650" y="536.6" width="3.1" height="111.8" class="wall drywall"/>

<rect x="650" y="684.8" width="3.1" height="42.9" class="wall drywall"/>
<rect x="443.6" y="600" width="85.8" height="3.1" class="wall drywall"/>

<rect x="565.8" y="600" width="176.8" height="3.1" class="wall drywall"/>

<rect x="768.6" y="600" width="80.6" height="3.1" class="wall drywall"/>
<path d="M 137.3 294.8 L 137.3 268.8" class="door-shut"/>
<path d="M 137.3 268.8 A 26 26 0 0 0 136.4 320.8" class="door-arc"/>
<path d="M 137.3 294.8 L 136.4 320.8" class="door-open"/>
<circle cx="137.3" cy="294.8" r="3" class="hinge"/>
<text x="161.5" y="285.8" class="door-id">stair-w-2</text>
<path d="M 853.9 544.4 L 853.9 570.4" class="door-shut"/>
<path d="M 853.9 570.4 A 26 26 0 0 0 854.8 518.4" class="door-arc"/>
<path d="M 853.9 544.4 L 854.8 518.4" class="door-open"/>
<circle cx="853.9" cy="544.4" r="3" class="hinge"/>
<text x="829.7" y="561.4" class="door-id">stair-e-2</text>
<path d="M 222.6 380.9 L 248.6 380.9" class="door-shut"/>
<path d="M 248.6 380.9 A 26 26 0 0 0 196.6 380" class="door-arc"/>
<path d="M 222.6 380.9 L 196.6 380" class="door-open"/>
<circle cx="222.6" cy="380.9" r="3" class="hinge"/>
<text x="235.6" y="406.7" class="door-id">master-spine</text>
<path d="M 417.6 380.9 L 391.6 380.9" class="door-shut"/>
<path d="M 391.6 380.9 A 26 26 0 0 1 443.6 380" class="door-arc"/>
<path d="M 417.6 380.9 L 443.6 380" class="door-open"/>
<circle cx="417.6" cy="380.9" r="3" class="hinge"/>
<text x="404.6" y="406.7" class="door-id">wardrobe-spine</text>
<path d="M 534.6 380.9 L 560.6 380.9" class="door-shut"/>
<path d="M 560.6 380.9 A 26 26 0 0 0 508.6 380" class="door-arc"/>
<path d="M 534.6 380.9 L 508.6 380" class="door-open"/>
<circle cx="534.6" cy="380.9" r="3" class="hinge"/>
<text x="547.6" y="406.7" class="door-id">study2-spine</text>
<path d="M 742.6 380.9 L 716.6 380.9" class="door-shut"/>
<path d="M 716.6 380.9 A 26 26 0 0 1 768.6 380" class="door-arc"/>
<path d="M 742.6 380.9 L 768.6 380" class="door-open"/>
<circle cx="742.6" cy="380.9" r="3" class="hinge"/>
<text x="729.6" y="406.7" class="door-id">laundry-spine</text>
<path d="M 274.6 458.3 L 300.6 458.3" class="door-shut"/>
<path d="M 300.6 458.3 A 26 26 0 0 1 248.6 459.2" class="door-arc"/>
<path d="M 274.6 458.3 L 248.6 459.2" class="door-open"/>
<circle cx="274.6" cy="458.3" r="3" class="hinge"/>
<text x="287.6" y="440.5" class="door-id">terrace-spine</text>
<path d="M 560.6 458.3 L 534.6 458.3" class="door-shut"/>
<path d="M 534.6 458.3 A 26 26 0 0 0 586.6 459.2" class="door-arc"/>
<path d="M 560.6 458.3 L 586.6 459.2" class="door-open"/>
<circle cx="560.6" cy="458.3" r="3" class="hinge"/>
<text x="547.6" y="440.5" class="door-id">lounge-spine</text>
<path d="M 742.6 458.3 L 768.6 458.3" class="door-shut"/>
<path d="M 768.6 458.3 A 26 26 0 0 1 716.6 459.2" class="door-arc"/>
<path d="M 742.6 458.3 L 716.6 459.2" class="door-open"/>
<circle cx="742.6" cy="458.3" r="3" class="hinge"/>
<text x="755.6" y="440.5" class="door-id">sauna-spine</text>
<path d="M 341.9 302.6 L 341.9 328.6" class="door-shut"/>
<path d="M 341.9 328.6 A 26 26 0 0 0 342.8 276.6" class="door-arc"/>
<path d="M 341.9 302.6 L 342.8 276.6" class="door-open"/>
<circle cx="341.9" cy="302.6" r="3" class="hinge"/>
<text x="320.1" y="319.6" class="door-id">master-wardrobe</text>
<path d="M 341.9 198.6 L 341.9 172.6" class="door-shut"/>
<path d="M 341.9 172.6 A 26 26 0 0 1 342.8 224.6" class="door-arc"/>
<path d="M 341.9 198.6 L 342.8 224.6" class="door-open"/>
<circle cx="341.9" cy="198.6" r="3" class="hinge"/>
<text x="320.1" y="189.6" class="door-id">bath2-bed2</text>
<path d="M 627.9 172.6 L 627.9 198.6" class="door-shut"/>
<path d="M 627.9 198.6 A 26 26 0 0 0 628.8 146.6" class="door-arc"/>
<path d="M 627.9 172.6 L 628.8 146.6" class="door-open"/>
<circle cx="627.9" cy="172.6" r="3" class="hinge"/>
<text x="606.1" y="189.6" class="door-id">bed3-bath</text>
<path d="M 731.9 198.6 L 731.9 172.6" class="door-shut"/>
<path d="M 731.9 172.6 A 26 26 0 0 1 732.8 224.6" class="door-arc"/>
<path d="M 731.9 198.6 L 732.8 224.6" class="door-open"/>
<circle cx="731.9" cy="198.6" r="3" class="hinge"/>
<text x="710.1" y="189.6" class="door-id">bath-store</text>
<path d="M 222.6 248.3 L 248.6 248.3" class="door-shut"/>
<path d="M 248.6 248.3 A 26 26 0 0 0 196.6 247.4" class="door-arc"/>
<path d="M 222.6 248.3 L 196.6 247.4" class="door-open"/>
<circle cx="222.6" cy="248.3" r="3" class="hinge"/>
<text x="235.6" y="274.1" class="door-id">master-bath2</text>
<path d="M 560.6 248.3 L 534.6 248.3" class="door-shut"/>
<path d="M 534.6 248.3 A 26 26 0 0 1 586.6 247.4" class="door-arc"/>
<path d="M 560.6 248.3 L 586.6 247.4" class="door-open"/>
<circle cx="560.6" cy="248.3" r="3" class="hinge"/>
<text x="547.6" y="274.1" class="door-id">study2-bed3</text>
<path d="M 768.6 248.3 L 794.6 248.3" class="door-shut"/>
<path d="M 794.6 248.3 A 26 26 0 0 0 742.6 247.4" class="door-arc"/>
<path d="M 768.6 248.3 L 742.6 247.4" class="door-open"/>
<circle cx="768.6" cy="248.3" r="3" class="hinge"/>
<text x="781.6" y="274.1" class="door-id">laundry-store</text>
<path d="M 445.9 510.6 L 445.9 536.6" class="door-shut"/>
<path d="M 445.9 536.6 A 26 26 0 0 0 446.8 484.6" class="door-arc"/>
<path d="M 445.9 510.6 L 446.8 484.6" class="door-open"/>
<circle cx="445.9" cy="510.6" r="3" class="hinge"/>
<text x="424.1" y="527.6" class="door-id">lounge-terrace</text>
<path d="M 653.9 536.6 L 653.9 510.6" class="door-shut"/>
<path d="M 653.9 510.6 A 26 26 0 0 1 654.8 562.6" class="door-arc"/>
<path d="M 653.9 536.6 L 654.8 562.6" class="door-open"/>
<circle cx="653.9" cy="536.6" r="3" class="hinge"/>
<text x="632.1" y="527.6" class="door-id">lounge-sauna</text>
<path d="M 742.6 603.9 L 768.6 603.9" class="door-shut"/>
<path d="M 768.6 603.9 A 26 26 0 0 1 716.6 604.8" class="door-arc"/>
<path d="M 742.6 603.9 L 716.6 604.8" class="door-open"/>
<circle cx="742.6" cy="603.9" r="3" class="hinge"/>
<text x="755.6" y="586.1" class="door-id">sauna-office</text>
<circle cx="157.6" cy="328.6" r="5" class="spawn defenders"/>
<circle cx="729.6" cy="523.6" r="5" class="spawn defenders"/>
<text x="209.6" y="177.1" class="room-name">Ванная хозяев</text>
<text x="209.6" y="194.1" class="room-size">10 × 5.4 м · master-bath</text>
<text x="404.6" y="177.1" class="room-name">Спальня 2</text>
<text x="404.6" y="194.1" class="room-size">5 × 5.4 м · bed2</text>
<text x="547.6" y="177.1" class="room-name">Спальня 3</text>
<text x="547.6" y="194.1" class="room-size">6 × 5.4 м · bed3</text>
<text x="677.6" y="177.1" class="room-name">Санузел</text>
<text x="677.6" y="194.1" class="room-size">4 × 5.4 м · kids-bath</text>
<text x="820.6" y="177.1" class="room-name">Кладовая</text>
<text x="820.6" y="194.1" class="room-size">7 × 5.4 м · store</text>
<text x="209.6" y="312.9" class="room-name">Спальня хозяев</text>
<text x="209.6" y="329.9" class="room-size">10 × 5.1 м · master</text>
<text x="404.6" y="312.9" class="room-name">Гардероб</text>
<text x="404.6" y="329.9" class="room-size">5 × 5.1 м · wardrobe</text>
<text x="547.6" y="312.9" class="room-name">Кабинет</text>
<text x="547.6" y="329.9" class="room-size">6 × 5.1 м · study2</text>
<text x="768.6" y="312.9" class="room-name">Прачечная</text>
<text x="768.6" y="329.9" class="room-size">11 × 5.1 м · laundry</text>
<text x="495.6" y="415.6" class="room-name">Коридор</text>
<text x="495.6" y="432.6" class="room-size">27.2 × 2.8 м · spine-1</text>
<text x="261.6" y="587.9" class="room-name">Терраса (без крыши)</text>
<text x="261.6" y="604.9" class="room-size">14 × 10.5 м · terrace</text>
<text x="547.6" y="524.8" class="room-name">Гостиная</text>
<text x="547.6" y="541.8" class="room-size">8 × 5.6 м · lounge</text>
<text x="781.6" y="524.8" class="room-name">Сауна</text>
<text x="781.6" y="541.8" class="room-size">10 × 5.6 м · sauna</text>
<text x="547.6" y="660.7" class="room-name">Медиа</text>
<text x="547.6" y="677.7" class="room-size">8 × 4.9 м · media</text>
<text x="781.6" y="660.7" class="room-name">Кабинет 2</text>
<text x="781.6" y="677.7" class="room-size">10 × 4.9 м · office</text>
<text x="110.8" y="268.6" class="shaft-label">Лестница З</text>
<text x="110.8" y="448" class="room-size">shaft-w-top</text>
<text x="880.4" y="401.2" class="shaft-label">Лестница В</text>
<text x="880.4" y="593.6" class="room-size">shaft-e-top</text>
</svg>
